<svg xmlns="http://www.w3.org/2000/svg" width="1200" height="760" viewBox="0 0 1200 760" overflow="hidden" role="img" aria-labelledby="t d">
      <title id="t">Config needs safe inputs before runtime starts</title><desc id="d">A configuration diagram showing files, environment variables, and secret stores feeding validation before the app starts.</desc>
      <defs><marker id="a" markerWidth="10" markerHeight="10" refX="8" refY="5" orient="auto"><path d="M0,0 L10,5 L0,10 z" fill="#f0f4fa"/></marker></defs>

<style>
  .bg { fill: #0b1016; }
  .panel { fill: #151b22; stroke: #2c343d; stroke-width: 2; }
  .panel-soft { fill: #11161c; stroke: #27303a; stroke-width: 2; }
  .accent-panel { fill: #1b1013; stroke: #a50008; stroke-width: 2.5; }
  .chip { fill: #151b22; stroke: #46505b; stroke-width: 1.5; }
  .line { stroke: #f0f4fa; stroke-width: 3; fill: none; marker-end: url(#arrow); }
  .line-muted { stroke: #8d97a2; stroke-width: 2.5; fill: none; marker-end: url(#arrow-muted); }
  .title { fill: #f4f7fb; font: 700 34px 'Segoe UI', Arial, sans-serif; }
  .body { fill: #e9eef5; font: 600 24px 'Segoe UI', Arial, sans-serif; }
  .small { fill: #aab4bf; font: 500 18px 'Segoe UI', Arial, sans-serif; }
  .mono { fill: #f4f7fb; font: 700 20px Consolas, monospace; }
  .accent { fill: #ff9095; font: 700 16px Consolas, monospace; letter-spacing: 1px; text-transform: uppercase; }
</style>

      <rect class="bg" width="1200" height="760" rx="28"/>
      <text x="72" y="88" class="accent">Topic 17</text>
      <text x="72" y="140" class="title">Config needs safe inputs before runtime starts</text>

      <rect x="72" y="276" width="180" height="126" rx="26" class="panel"/>
      <text x="132" y="334" class="accent">File</text>
      <text x="141" y="376" class="body">YAML</text>
      <rect x="300" y="276" width="180" height="126" rx="26" class="chip"/>
      <text x="333" y="334" class="accent">Env vars</text>
      <text x="352" y="376" class="body">runtime</text>
      <rect x="528" y="276" width="180" height="126" rx="26" class="panel-soft"/>
      <text x="555" y="334" class="accent">Secret store</text>
      <text x="585" y="376" class="body">vault</text>
      <rect x="780" y="246" width="200" height="156" rx="28" class="accent-panel"/>
      <text x="846" y="306" class="accent">Validate</text>
      <text x="838" y="348" class="body">merge</text>
      <text x="820" y="382" class="small">required + safe</text>
      <rect x="1008" y="276" width="140" height="126" rx="26" class="panel"/>
      <text x="1042" y="334" class="accent">App</text>
      <text x="1037" y="376" class="body">start</text>
      <path d="M252 339 L300 339" stroke="#f0f4fa" stroke-width="3" fill="none" marker-end="url(#a)"/>
      <path d="M480 339 L528 339" stroke="#f0f4fa" stroke-width="3" fill="none" marker-end="url(#a)"/>
      <path d="M708 339 L780 324" stroke="#f0f4fa" stroke-width="3" fill="none" marker-end="url(#a)"/>
      <path d="M980 324 L1008 339" stroke="#f0f4fa" stroke-width="3" fill="none" marker-end="url(#a)"/>

      </svg>