<svg xmlns="http://www.w3.org/2000/svg" width="1200" height="760" viewBox="0 0 1200 760" overflow="hidden" role="img" aria-labelledby="t d">
      <title id="t">Performance work should loop through measurement</title><desc id="d">A performance engineering loop showing measurement, bottleneck detection, optimization, and validation.</desc>
      <defs><marker id="a" markerWidth="10" markerHeight="10" refX="8" refY="5" orient="auto"><path d="M0,0 L10,5 L0,10 z" fill="#f0f4fa"/></marker></defs>

<style>
  .bg { fill: #0b1016; }
  .panel { fill: #151b22; stroke: #2c343d; stroke-width: 2; }
  .panel-soft { fill: #11161c; stroke: #27303a; stroke-width: 2; }
  .accent-panel { fill: #1b1013; stroke: #a50008; stroke-width: 2.5; }
  .chip { fill: #151b22; stroke: #46505b; stroke-width: 1.5; }
  .line { stroke: #f0f4fa; stroke-width: 3; fill: none; marker-end: url(#arrow); }
  .line-muted { stroke: #8d97a2; stroke-width: 2.5; fill: none; marker-end: url(#arrow-muted); }
  .title { fill: #f4f7fb; font: 700 34px 'Segoe UI', Arial, sans-serif; }
  .body { fill: #e9eef5; font: 600 24px 'Segoe UI', Arial, sans-serif; }
  .small { fill: #aab4bf; font: 500 18px 'Segoe UI', Arial, sans-serif; }
  .mono { fill: #f4f7fb; font: 700 20px Consolas, monospace; }
  .accent { fill: #ff9095; font: 700 16px Consolas, monospace; letter-spacing: 1px; text-transform: uppercase; }
</style>

      <rect class="bg" width="1200" height="760" rx="28"/>
      <text x="72" y="88" class="accent">Topic 21.1</text>
      <text x="72" y="140" class="title">Performance work should loop through measurement</text>

      <rect x="84" y="286" width="190" height="126" rx="26" class="panel"/>
      <text x="137" y="344" class="accent">Measure</text>
      <text x="136" y="386" class="body">latency</text>
      <rect x="326" y="286" width="196" height="126" rx="26" class="chip"/>
      <text x="370" y="344" class="accent">Find hot path</text>
      <text x="393" y="386" class="body">trace</text>
      <rect x="574" y="256" width="196" height="156" rx="28" class="accent-panel"/>
      <text x="632" y="316" class="accent">Optimize</text>
      <text x="637" y="358" class="body">db, cache</text>
      <text x="643" y="392" class="small">one layer</text>
      <rect x="822" y="286" width="196" height="126" rx="26" class="panel"/>
      <text x="879" y="344" class="accent">Re-check</text>
      <text x="877" y="386" class="body">impact</text>
      <path d="M274 349 L326 349" stroke="#f0f4fa" stroke-width="3" fill="none" marker-end="url(#a)"/>
      <path d="M522 349 L574 334" stroke="#f0f4fa" stroke-width="3" fill="none" marker-end="url(#a)"/>
      <path d="M770 334 L822 349" stroke="#f0f4fa" stroke-width="3" fill="none" marker-end="url(#a)"/>
      <path d="M920 442 C 720 608, 380 608, 176 442" stroke="#8d97a2" stroke-width="3" fill="none" marker-end="url(#a)"/>

      </svg>