<svg xmlns="http://www.w3.org/2000/svg" width="1200" height="760" viewBox="0 0 1200 760" overflow="hidden" role="img" aria-labelledby="t d">
      <title id="t">Scaling out works only when state is shared</title><desc id="d">A horizontal scaling diagram showing a load balancer, multiple app instances, and shared data systems.</desc>
      <defs><marker id="a" markerWidth="10" markerHeight="10" refX="8" refY="5" orient="auto"><path d="M0,0 L10,5 L0,10 z" fill="#f0f4fa"/></marker></defs>

<style>
  .bg { fill: #0b1016; }
  .panel { fill: #151b22; stroke: #2c343d; stroke-width: 2; }
  .panel-soft { fill: #11161c; stroke: #27303a; stroke-width: 2; }
  .accent-panel { fill: #1b1013; stroke: #a50008; stroke-width: 2.5; }
  .chip { fill: #151b22; stroke: #46505b; stroke-width: 1.5; }
  .line { stroke: #f0f4fa; stroke-width: 3; fill: none; marker-end: url(#arrow); }
  .line-muted { stroke: #8d97a2; stroke-width: 2.5; fill: none; marker-end: url(#arrow-muted); }
  .title { fill: #f4f7fb; font: 700 34px 'Segoe UI', Arial, sans-serif; }
  .body { fill: #e9eef5; font: 600 24px 'Segoe UI', Arial, sans-serif; }
  .small { fill: #aab4bf; font: 500 18px 'Segoe UI', Arial, sans-serif; }
  .mono { fill: #f4f7fb; font: 700 20px Consolas, monospace; }
  .accent { fill: #ff9095; font: 700 16px Consolas, monospace; letter-spacing: 1px; text-transform: uppercase; }
</style>

      <rect class="bg" width="1200" height="760" rx="28"/>
      <text x="72" y="88" class="accent">Topic 21.2</text>
      <text x="72" y="140" class="title">Scaling out works only when state is shared</text>

      <rect x="508" y="176" width="188" height="118" rx="26" class="accent-panel"/>
      <text x="548" y="234" class="accent">Load balancer</text>
      <text x="566" y="276" class="body">route</text>
      <rect x="168" y="388" width="168" height="120" rx="26" class="panel"/>
      <text x="229" y="446" class="accent">App A</text>
      <text x="217" y="488" class="body">stateless</text>
      <rect x="516" y="388" width="168" height="120" rx="26" class="chip"/>
      <text x="577" y="446" class="accent">App B</text>
      <text x="565" y="488" class="body">stateless</text>
      <rect x="864" y="388" width="168" height="120" rx="26" class="panel-soft"/>
      <text x="925" y="446" class="accent">App C</text>
      <text x="913" y="488" class="body">stateless</text>
      <rect x="284" y="610" width="632" height="96" rx="28" class="panel"/>
      <text x="492" y="664" class="accent">Shared state</text>
      <text x="448" y="698" class="small">db, redis, object store</text>
      <path d="M562 294 L252 388" stroke="#f0f4fa" stroke-width="3" fill="none" marker-end="url(#a)"/>
      <path d="M602 294 L600 388" stroke="#f0f4fa" stroke-width="3" fill="none" marker-end="url(#a)"/>
      <path d="M642 294 L948 388" stroke="#f0f4fa" stroke-width="3" fill="none" marker-end="url(#a)"/>
      <path d="M252 508 L416 610" stroke="#f0f4fa" stroke-width="3" fill="none" marker-end="url(#a)"/>
      <path d="M600 508 L600 610" stroke="#f0f4fa" stroke-width="3" fill="none" marker-end="url(#a)"/>
      <path d="M948 508 L784 610" stroke="#f0f4fa" stroke-width="3" fill="none" marker-end="url(#a)"/>

      </svg>